<?xml version="1.0" encoding="UTF-8"?>
<svg id="_レイヤー_1" data-name="レイヤー_1" xmlns="http://www.w3.org/2000/svg" version="1.1" viewBox="0 0 1329.9 131.6">
  <!-- Generator: Adobe Illustrator 30.0.0, SVG Export Plug-In . SVG Version: 2.1.1 Build 123)  -->
  <path d="M91,8.9c5.7,5.2,8.5,12.2,8.5,20.9s-.1,3-.4,5.7c-1.3,10.3-5.7,18.5-13.1,24.7-7.4,6.2-16.5,9.3-27.3,9.3H16.3c-.4,0-.7.2-1,.7l-7.6,58.1c-.3,1.2-1,1.8-2.2,1.8H1.7c-1.3,0-1.9-.6-1.6-1.8L16.9,2.9c0-.5.2-.9.6-1.3s.9-.6,1.4-.6h49.2c9.6,0,17.2,2.6,22.9,7.8ZM76.1,59.1c4.9-2.8,8.8-6.6,11.6-11.5,2.8-4.9,4.2-10.5,4.2-16.7s-2.2-12.7-6.7-16.9c-4.5-4.2-10.6-6.2-18.3-6.2H24.5c-.5,0-.8.2-.8.7l-7.2,54c-.1.1-.1.3,0,.5.1.2.3.3.6.3h42.2c6.3,0,11.9-1.4,16.8-4.1Z"/>
  <path d="M186.2,122.1c-7-6.3-10.5-14.7-10.5-25.3s.1-3.3.4-6.2l6.8-49.4c1.1-8.1,3.8-15.3,8.3-21.5,4.5-6.2,10.2-11.1,17.3-14.5,7.1-3.4,14.9-5.1,23.6-5.1s21.5,3.2,28.6,9.5c7.1,6.3,10.6,14.8,10.6,25.5s-.1,3.3-.4,6.2l-6.6,49.4c-1.1,8.1-3.9,15.2-8.4,21.4-4.5,6.2-10.4,11-17.5,14.4-7.1,3.4-15.1,5.1-23.9,5.1s-21.3-3.2-28.3-9.5ZM243.3,115.8c7.6-6.2,12.1-14.5,13.4-24.8l6.6-50c.3-2.4.4-4.3.4-5.5,0-8.8-2.9-15.9-8.7-21.1-5.8-5.3-13.7-7.9-23.7-7.9s-20.2,3.2-27.7,9.5c-7.5,6.3-12,14.7-13.3,25.1l-6.6,50c-.3,2.5-.4,4.3-.4,5.5,0,8.7,2.9,15.7,8.7,20.9,5.8,5.2,13.6,7.8,23.5,7.8s20.2-3.1,27.8-9.4Z"/>
  <path d="M356.7,128.3L373.3,3.3c.3-1.2,1-1.8,2.2-1.8h3.6c.7,0,1.2.2,1.5.6.3.4.4.8.3,1.3l-16,119.6c0,.5.2.7.6.7h70.4c.7,0,1.2.2,1.5.6.3.4.4.8.3,1.3l-.4,2.8c-.3,1.2-1,1.8-2.2,1.8h-76.8c-1.3,0-1.9-.6-1.6-1.8Z"/>
  <path d="M553.1,128.3l7.8-58.1c0-.1,0-.3,0-.5,0-.2,0-.3,0-.5l-31.8-65.6c-.1-.2-.2-.6-.2-.9,0-.9.6-1.3,1.8-1.3h3.6c1.1,0,1.8.4,2.2,1.3l28.6,59c.1.1.3.2.6.2s.5,0,.6-.2l44.4-59c.7-.9,1.5-1.3,2.4-1.3h3.8c.7,0,1.1.2,1.4.6.3.4.1,1-.4,1.6l-49.4,65.6c-.1.1-.2.4-.2.9l-7.8,58.1c-.3,1.2-1,1.8-2.2,1.8h-3.4c-1.2,0-1.8-.6-1.8-1.8Z"/>
  <path d="M786.3,7.9h-74.6c-.4,0-.7.2-1,.7l-7,52.9c0,.5.2.7.6.7h53.4c1.2,0,1.8.6,1.8,1.8l-.4,2.9c-.1.5-.4.9-.8,1.3-.4.4-.9.6-1.4.6h-53.4c-.5,0-.8.2-.8.7l-8,58.6c0,.5-.2.9-.6,1.3-.4.4-.9.6-1.6.6h-3.6c-1.3,0-1.9-.6-1.6-1.8l16.6-125c.3-1.2,1-1.8,2.2-1.8h81c.7,0,1.2.2,1.5.6.3.4.4.8.3,1.3l-.4,2.8c-.3,1.2-1,1.8-2.2,1.8Z"/>
  <path d="M867.6,122.1c-7-6.3-10.5-14.7-10.5-25.3s.1-3.3.4-6.2l6.8-49.4c1.1-8.1,3.8-15.3,8.3-21.5,4.5-6.2,10.2-11.1,17.3-14.5,7.1-3.4,14.9-5.1,23.6-5.1s21.5,3.2,28.6,9.5c7.1,6.3,10.6,14.8,10.6,25.5s-.1,3.3-.4,6.2l-6.6,49.4c-1.1,8.1-3.9,15.2-8.4,21.4-4.5,6.2-10.4,11-17.5,14.4-7.1,3.4-15.1,5.1-23.9,5.1s-21.3-3.2-28.3-9.5ZM924.7,115.8c7.6-6.2,12.1-14.5,13.4-24.8l6.6-50c.3-2.4.4-4.3.4-5.5,0-8.8-2.9-15.9-8.7-21.1-5.8-5.3-13.7-7.9-23.7-7.9s-20.2,3.2-27.7,9.5c-7.5,6.3-12,14.7-13.3,25.1l-6.6,50c-.3,2.5-.4,4.3-.4,5.5,0,8.7,2.9,15.7,8.7,20.9,5.8,5.2,13.6,7.8,23.5,7.8s20.2-3.1,27.8-9.4Z"/>
  <path d="M1117.1,128.8l-22.4-59.7c-.1-.4-.4-.6-.8-.6h-39.6c-.5,0-.8.2-.8.7l-8,59c0,.5-.2.9-.6,1.3-.4.4-.9.6-1.6.6h-3.6c-1.3,0-1.9-.6-1.6-1.8l16.6-125c.3-1.2,1-1.8,2.2-1.8h47.6c9.6,0,17.2,2.6,22.9,7.8,5.7,5.2,8.5,12.2,8.5,20.9s-3.1,18.5-9.3,25.5c-6.2,6.9-14.2,11.1-23.9,12.4-.7.2-.9.6-.6.9l22.2,59,.2.7c0,1-.6,1.5-1.8,1.5h-3.4c-1.3,0-2.1-.4-2.2-1.3ZM1061.5,8.6l-7,53.1c0,.5.2.7.6.7h41c6,0,11.5-1.3,16.4-4,4.9-2.7,8.8-6.4,11.6-11.2,2.8-4.8,4.2-10.2,4.2-16.2s-2.2-12.7-6.7-16.9c-4.5-4.2-10.6-6.2-18.3-6.2h-40.8c-.4,0-.7.2-1,.7Z"/>
  <path d="M1324.1,1.5h4.2c.5,0,1,.2,1.3.6.3.4.4.8.3,1.3l-16.6,125c-.3,1.2-1,1.8-2.2,1.8h-3.8c-1.3,0-1.9-.6-1.6-1.8l15-112.5c0-.4,0-.6-.3-.6-.2,0-.4,0-.7.5l-43.4,53.5c-.7.9-1.5,1.3-2.4,1.3h-2c-.8,0-1.5-.4-2.2-1.3l-29.6-53.3c-.1-.4-.3-.5-.5-.4-.2.1-.4.4-.5.7l-15,112.1c0,.5-.2.9-.6,1.3-.4.4-.9.6-1.6.6h-3.6c-1.3,0-1.9-.6-1.6-1.8l16.6-125c.3-1.2,1-1.8,2.2-1.8h4c1.1,0,1.8.4,2.2,1.3l31.8,57.7c.1.1.3.2.6.2s.5,0,.6-.2l47-57.7c.7-.9,1.5-1.3,2.4-1.3Z"/>
</svg>