<?xml version="1.0" encoding="UTF-8"?>
<svg id="_レイヤー_1" data-name="レイヤー_1" xmlns="http://www.w3.org/2000/svg" version="1.1" viewBox="0 0 2765 799.2">
  <!-- Generator: Adobe Illustrator 30.0.0, SVG Export Plug-In . SVG Version: 2.1.1 Build 123)  -->
  <g>
    <g>
      <path d="M2765,172.1v454c-6,49-45.8,88.6-95.5,92h-306.1c-48.1-4.6-86.8-41.9-93.3-89.7-1.9-152.4-1.9-305.3,0-457.8,6.3-47.1,44.2-84.3,91.4-89.6h312.9c45.8,5.4,85.9,44.7,90.6,91ZM2362.8,120.4c-27.9,4.4-49.4,26.4-53.8,54.2v448c3.2,29.4,27.1,53.1,56.5,56.4h303c30.5-3,54.6-28.1,57.5-58.4V178.5c-2.3-29.6-26.1-54.5-55.6-58.4l-307.7.3Z"/>
      <path d="M2606,504.1c-10.2,1-20.3,3-30.5,4-40.8,4-125.9,10.6-143.5-37.5-13.3-36.4,8.7-70.2,38.1-90.1l-35.1-76.4,40-15c7.3,23.8,19.2,45.8,30,68,25.4-15,53.2-26.6,76.5-45l21.4,36.4c-32.9,21.4-72.6,33.5-104.3,56.8-31.9,23.4-42.1,59.4,8.8,62.9,32.7,2.2,66.4-3.8,98.5-9v45Z"/>
    </g>
    <g>
      <path d="M1812.8,81.4l314.6-.2c46.9,5.6,84.3,42.8,90.5,89.5,2.6,147.8.4,295.9,1.1,443.9-.8,53.6-40.8,98.5-94.5,103.5h-308c-50.1-4.9-90.4-45.9-93.6-96.5v-346.1c6.7-36.2,24.7-71.2,18.8-108.7-1.5-9.8-5.5-18.8-8.6-28,15.2-31.2,45.2-52.7,79.6-57.4ZM1815.8,120.4c-28.3,4.6-51,28.6-53.8,57.2v443c2.9,30,26.4,54.8,56.5,58.4h303c29.8-2.8,54.3-26.7,57.5-56.4V175.5c-3.8-28.8-26.7-51.6-55.6-55.4l-307.7.3Z"/>
      <path d="M1996,304.1l-48,80c20.7-5.7,46-6.7,54,17.5,5.1,15.2,1.9,30.6,2.9,46.1.5,7.2,1,17.5,9.8,19.2,28.5,5.8,37.4-37.9,43.2-57.3.3-1.1-.7-1.8,1.5-1.4l33.3,27.5c-11.6,40.3-37.1,78.8-84.3,75.6-47.3-3.2-40.2-39.6-42.5-73.5-.8-11.8-2.1-20.9-16.5-19.5-23.5,2.3-36.6,45.7-42.5,64.5-3.1,9.7-6,19.6-8,29.5l-44-14.5c-1.4-.8-.9-1.4-.6-2.5,1.2-4.9,5.1-12.8,7.1-18,14.7-36.5,32.4-73.9,49.6-109.4,13.1-27,28.1-53.1,39.9-80.6l45,17Z"/>
    </g>
  </g>
  <g>
    <g>
      <path d="M0,627.1V171.1c7.1-47.9,44.9-85.5,93.5-90h308.1c49.3,4.4,89.1,44.3,93.5,93.5v452c-5.8,48.4-44.1,86.3-92.6,91.5H91.6c-45.6-4.1-87.4-45.3-91.6-91ZM92.8,120.4c-28.4,4.7-50.3,27.7-53.8,56.2v445c2.9,29.6,27,53.9,56.5,57.4h303c29.8-2.8,54-26.7,57.5-56.4V176.5c-3.5-29.3-26.3-52.4-55.6-56.4l-307.7.3Z"/>
      <path d="M239,338.1l43-3-1,37-48,3-2.4,28,49.4-3-1,37-53,2c-2.4,18.4-1.2,36.6,19.8,41.7s53.4-.4,62.7-20.7c8.4-18.3-4-38.7-15.5-52.5s-8.2-7.4-7-8.5l43.3-7.8c31.8,36,36.9,91.5-9.6,118-29.8,16.9-88,21.4-115.1-2.2-19.8-17.2-20.3-45.8-16.5-70l-46.9-8.1,1.9-37.9,49,10,3-29c-16.1-1-32.2-4.3-47.6-8.9l1-35.1c1.2-1.5,1.3-.5,2.3-.2,16.2,4,32.5,8.6,49.3,8.3l2-42,41.5,2,2.3,1.5-6.8,40.5Z"/>
    </g>
    <g>
      <path d="M636.8,81.4l314.6-.2c48.7,6.3,86.8,46.3,90.7,95.3v348c-10.4,45.1-32.7,90.4-10.2,135.8-16.3,32.3-47.8,54.6-84.3,57.8h-308c-47.8-5.4-86.1-41.7-92.4-89.7-1.9-152.4-1.9-305.3,0-457.8,6.2-46.7,43-83.5,89.7-89.3ZM639.8,120.4c-32.6,5.7-52.7,30.6-54.8,63.2v431c2,34.2,23.1,59.6,57.5,64.4h303c30.8-3.4,55.1-28.5,57.5-59.4V179.5c-2.5-30.3-25.4-55.1-55.5-59.5l-307.7.3Z"/>
      <path d="M762,302.1l-4,49.5c1,32.1-4.4,66.2-2,98.1,1.9,25.9,25.3,27.9,46.3,24.2,26.4-4.6,50.8-24.9,63.8-47.7,1.8-.3,2.5.9,3.5,2,8.5,8.7,16.2,21.3,24.3,30.7-26.1,41.3-78.8,63.7-127.1,56.1s-48.8-23.9-50.8-55.2c-1.9-30.1,1.7-61,2.1-91,.3-22.6.5-45.2-3-67.5l47,1Z"/>
      <path d="M819,372.1c-6-13.8-12.9-27.4-22-39.5l25.5-11.4,23.5,39.4-26.9,11.5Z"/>
      <path d="M854.7,308.2c2.8-.4,4.9,3.9,6.5,6.1,2.5,3.4,18.8,29.4,18.7,31.2l-25.3,12.4-23.6-38.4c0-1.3,22.1-11.1,23.7-11.3Z"/>
    </g>
  </g>
  <g>
    <path d="M1261.8.4c7.5-.8,15.1,0,22.7-.3,127,31.9,253.4,66.8,379.8,101.2,39.1,15.6,63.9,55,61.7,97.3-43.9,177.8-94.3,354.1-140.7,531.3-15,48.4-62.3,76.6-112.3,67.8l-367.5-98.5c-40.9-14.3-67.7-55.2-65.5-98.5,46.4-182.9,95-365.8,146.8-547.2,13.4-27.3,44.4-49.9,75-53ZM1304,420.1c3.1-21.9,12.1-43.6,20.5-64,8.6-20.9,17.9-42.7,30.4-61.5l-31.5-12.4c-26.8,64.5-59.1,130-57.4,201.8l27,4.6c6-27.9,25.5-50.1,39.7-74.1l-11.2-15.5-17.5,21ZM1461,363.1l13-39.4-34-9.5c-.6,3.6-.7,7.5-1.5,11.1-1.5,6.9-4.9,24-7.5,29.5-.4.9-.5,2-1.7,2.3l-58.4-16.9-6.6,28,58.6,17.5-12.5,50.4c-25.5-12.9-69.7-13.3-79.2,19.8-8.7,30.5,15.4,48.5,41.9,55.5,27.4,7.2,48.8,1.5,59.3-26.3l23,31c3.5-2.7,22.4-17.8,22.5-20.5,0-2.1-9.9-15.4-12-18-5.6-7-12.1-13.3-18.4-19.6s-7.2-4.5-7.3-7.2l12.8-58.7,39,5.6,8-29.6-39-5Z"/>
    <path d="M1374.8,451.3c9.6-.7,22.6,4.8,30.7,9.7-2.8,22.4-18.3,28-37.2,17.2-15.7-8.9-9.7-25.8,6.5-26.9Z"/>
  </g>
</svg>