<?xml version="1.0" encoding="UTF-8"?>
<svg id="_レイヤー_1" data-name="レイヤー_1" xmlns="http://www.w3.org/2000/svg" version="1.1" viewBox="0 0 2765 799.2">
  <!-- Generator: Adobe Illustrator 30.0.0, SVG Export Plug-In . SVG Version: 2.1.1 Build 123)  -->
  <defs>
    <style>
      .st0 {
        fill: #fff;
      }
    </style>
  </defs>
  <g>
    <g>
      <path d="M2765,172.1v454c-6,49-45.8,88.6-95.5,92h-306.1c-48.1-4.6-86.8-41.9-93.3-89.7-1.9-152.4-1.9-305.3,0-457.8,6.3-47.1,44.2-84.3,91.4-89.6h312.9c45.8,5.4,85.9,44.7,90.6,91ZM2362.8,120.4c-27.9,4.4-49.4,26.4-53.8,54.2v448c3.2,29.4,27.1,53.1,56.5,56.4h303c30.5-3,54.6-28.1,57.5-58.4V178.5c-2.3-29.6-26.1-54.5-55.6-58.4l-307.7.3Z"/>
      <path class="st0" d="M2362.8,120.4l307.7-.3c29.4,3.9,53.2,28.8,55.6,58.4v442.1c-2.9,30.3-27,55.5-57.5,58.5h-303c-29.4-3.4-53.3-27.1-56.6-56.5V174.6c4.4-27.8,26-49.8,53.8-54.2ZM2606,504.1v-45c-32.1,5.2-65.8,11.3-98.5,9-50.9-3.5-40.6-39.4-8.8-62.9,31.7-23.3,71.4-35.4,104.3-56.8l-21.4-36.4c-23.2,18.4-51,30-76.5,45-10.8-22.2-22.7-44.2-30-68l-40,15,35.1,76.4c-29.4,19.9-51.4,53.7-38.1,90.1s102.7,41.5,143.5,37.5c10.2-1,20.3-3,30.5-4Z"/>
      <path d="M2606,504.1c-10.2,1-20.3,3-30.5,4-40.8,4-125.9,10.6-143.5-37.5s8.7-70.2,38.1-90.1l-35.1-76.4,40-15c7.3,23.8,19.2,45.8,30,68,25.4-15,53.2-26.6,76.5-45l21.4,36.4c-32.9,21.4-72.6,33.5-104.3,56.8-31.9,23.4-42.1,59.4,8.8,62.9,32.7,2.2,66.4-3.8,98.5-9v45Z"/>
    </g>
    <g>
      <path d="M1812.8,81.4l314.6-.2c46.9,5.6,84.3,42.8,90.5,89.5,2.6,147.8.4,295.9,1.1,443.9-.8,53.6-40.8,98.5-94.5,103.5h-308c-50.1-4.9-90.4-45.9-93.6-96.5v-346.1c6.7-36.2,24.7-71.2,18.8-108.7s-5.5-18.8-8.6-28c15.2-31.2,45.2-52.7,79.6-57.4ZM1815.8,120.4c-28.3,4.6-51,28.6-53.8,57.2v443c2.9,30,26.4,54.8,56.5,58.4h303c29.8-2.8,54.3-26.7,57.5-56.4V175.5c-3.8-28.8-26.7-51.6-55.6-55.4l-307.7.3Z"/>
      <path class="st0" d="M1815.8,120.4l307.7-.3c28.8,3.8,51.7,26.6,55.6,55.4v447.1c-3.2,29.7-27.7,53.6-57.5,56.5h-303c-30.1-3.7-53.6-28.4-56.6-58.5V177.6c2.8-28.6,25.5-52.6,53.8-57.2ZM1996,304.1l-45-17c-11.7,27.5-26.8,53.7-39.9,80.6-17.2,35.5-34.9,72.9-49.6,109.4s-5.9,13-7.1,18-.8,1.7.6,2.5l44,14.5c1.9-10,4.9-19.9,8-29.5,6-18.8,19-62.2,42.5-64.5,14.4-1.4,15.7,7.7,16.5,19.5,2.2,34-4.9,70.3,42.5,73.5,47.2,3.2,72.7-35.3,84.3-75.6l-33.3-27.5c-2.2-.3-1.2.3-1.5,1.4-5.8,19.4-14.7,63.1-43.2,57.3-8.7-1.8-9.3-12-9.8-19.2-1-15.5,2.2-30.9-2.9-46.1-8.1-24.1-33.3-23.2-54-17.5l48-80Z"/>
      <path d="M1996,304.1l-48,80c20.7-5.7,46-6.7,54,17.5,5.1,15.2,1.9,30.6,2.9,46.1s1,17.5,9.8,19.2c28.5,5.8,37.4-37.9,43.2-57.3.3-1.1-.7-1.8,1.5-1.4l33.3,27.5c-11.6,40.3-37.1,78.8-84.3,75.6-47.3-3.2-40.2-39.6-42.5-73.5-.8-11.8-2.1-20.9-16.5-19.5-23.5,2.3-36.6,45.7-42.5,64.5s-6,19.6-8,29.5l-44-14.5c-1.4-.8-.9-1.4-.6-2.5,1.2-4.9,5.1-12.8,7.1-18,14.7-36.5,32.4-73.9,49.6-109.4,13.1-27,28.1-53.1,39.9-80.6l45,17Z"/>
    </g>
  </g>
  <g>
    <g>
      <path d="M0,627.1V171.1c7.1-47.9,44.9-85.5,93.5-90h308.1c49.3,4.4,89.1,44.3,93.5,93.5v452c-5.8,48.4-44.1,86.3-92.6,91.5H91.6c-45.6-4.1-87.4-45.3-91.6-91ZM92.8,120.4c-28.4,4.7-50.3,27.7-53.8,56.2v445c2.9,29.6,27,53.9,56.5,57.4h303c29.8-2.8,54-26.7,57.5-56.4V176.5c-3.5-29.3-26.3-52.4-55.6-56.4l-307.7.3Z"/>
      <path class="st0" d="M92.8,120.4l307.7-.3c29.2,4.1,52.1,27.1,55.6,56.4v446.1c-3.5,29.7-27.7,53.6-57.5,56.5H95.5c-29.5-3.6-53.6-27.9-56.6-57.5V176.6c3.5-28.5,25.5-51.5,53.8-56.2ZM239,338.1l6.8-40.5-2.3-1.5-41.5-2-2,42c-16.8.3-33.1-4.3-49.3-8.3s-1.1-1.3-2.3.2l-1,35.1c15.4,4.7,31.5,8,47.6,8.9l-3,29-49-10-1.9,37.9,46.9,8.1c-3.8,24.2-3.3,52.7,16.5,70,27.2,23.6,85.4,19.1,115.1,2.2,46.5-26.5,41.5-82,9.6-118l-43.3,7.8c-1.3,1.1,5.9,7.3,7,8.5,11.5,13.7,23.9,34.2,15.5,52.5s-43.3,25.5-62.7,20.7-22.2-23.4-19.8-41.7l53-2,1-37-49.4,3,2.4-28,48-3,1-37-43,3Z"/>
      <path d="M239,338.1l43-3-1,37-48,3-2.4,28,49.4-3-1,37-53,2c-2.4,18.4-1.2,36.6,19.8,41.7s53.4-.4,62.7-20.7-4-38.7-15.5-52.5-8.2-7.4-7-8.5l43.3-7.8c31.8,36,36.9,91.5-9.6,118-29.8,16.9-88,21.4-115.1-2.2-19.8-17.2-20.3-45.8-16.5-70l-46.9-8.1,1.9-37.9,49,10,3-29c-16.1-1-32.2-4.3-47.6-8.9l1-35.1c1.2-1.5,1.3-.5,2.3-.2,16.2,4,32.5,8.6,49.3,8.3l2-42,41.5,2,2.3,1.5-6.8,40.5Z"/>
    </g>
    <g>
      <path d="M636.8,81.4l314.6-.2c48.7,6.3,86.8,46.3,90.7,95.3v348c-10.4,45.1-32.7,90.4-10.2,135.8-16.3,32.3-47.8,54.6-84.3,57.8h-308c-47.8-5.4-86.1-41.7-92.4-89.7-1.9-152.4-1.9-305.3,0-457.8,6.2-46.7,43-83.5,89.7-89.3ZM639.8,120.4c-32.6,5.7-52.7,30.6-54.8,63.2v431c2,34.2,23.1,59.6,57.5,64.4h303c30.8-3.4,55.1-28.5,57.5-59.4V179.5c-2.5-30.3-25.4-55.1-55.5-59.5l-307.7.3Z"/>
      <path class="st0" d="M639.8,120.4l307.7-.3c30.1,4.4,53.1,29.2,55.5,59.5v440.1c-2.4,31-26.7,56.1-57.5,59.5h-303c-34.4-4.9-55.5-30.3-57.6-64.5V183.6c2.2-32.7,22.2-57.5,54.8-63.2ZM762,302.1l-47-1c3.5,22.3,3.4,44.9,3,67.5-.4,30-4,60.9-2.1,91,2,31.3,20.2,50.3,50.8,55.2,48.2,7.6,101-14.7,127.1-56.1-8.1-9.4-15.8-21.9-24.3-30.7s-1.7-2.3-3.5-2c-13,22.8-37.4,43.1-63.8,47.7-20.9,3.7-44.3,1.8-46.3-24.2-2.4-31.9,3-66,2-98.1l4-49.5ZM854.7,308.2c-1.7.2-23.6,10-23.7,11.3l23.6,38.4,25.3-12.4c.1-1.8-16.2-27.9-18.7-31.2s-3.7-6.5-6.5-6.1ZM819,372.1l26.9-11.5-23.5-39.4-25.5,11.4c9.1,12,16.1,25.6,22,39.5Z"/>
      <path d="M762,302.1l-4,49.5c1,32.1-4.4,66.2-2,98.1,1.9,25.9,25.3,27.9,46.3,24.2,26.4-4.6,50.8-24.9,63.8-47.7,1.8-.3,2.5.9,3.5,2,8.5,8.7,16.2,21.3,24.3,30.7-26.1,41.3-78.8,63.7-127.1,56.1s-48.8-23.9-50.8-55.2c-1.9-30.1,1.7-61,2.1-91,.3-22.6.5-45.2-3-67.5l47,1Z"/>
      <path d="M819,372.1c-6-13.8-12.9-27.4-22-39.5l25.5-11.4,23.5,39.4-26.9,11.5Z"/>
      <path d="M854.7,308.2c2.8-.4,4.9,3.9,6.5,6.1,2.5,3.4,18.8,29.4,18.7,31.2l-25.3,12.4-23.6-38.4c0-1.3,22.1-11.1,23.7-11.3Z"/>
    </g>
  </g>
  <g>
    <path d="M1261.8.4c7.5-.8,15.1,0,22.7-.3,127,31.9,253.4,66.8,379.8,101.2,39.1,15.6,63.9,55,61.7,97.3-43.9,177.8-94.3,354.1-140.7,531.3-15,48.4-62.3,76.6-112.3,67.8l-367.5-98.5c-40.9-14.3-67.7-55.2-65.5-98.5,46.4-182.9,95-365.8,146.8-547.2,13.4-27.3,44.4-49.9,75-53ZM1304,420.1c3.1-21.9,12.1-43.6,20.5-64,8.6-20.9,17.9-42.7,30.4-61.5l-31.5-12.4c-26.8,64.5-59.1,130-57.4,201.8l27,4.6c6-27.9,25.5-50.1,39.7-74.1l-11.2-15.5-17.5,21ZM1461,363.1l13-39.4-34-9.5c-.6,3.6-.7,7.5-1.5,11.1-1.5,6.9-4.9,24-7.5,29.5s-.5,2-1.7,2.3l-58.4-16.9-6.6,28,58.6,17.5-12.5,50.4c-25.5-12.9-69.7-13.3-79.2,19.8-8.7,30.5,15.4,48.5,41.9,55.5,27.4,7.2,48.8,1.5,59.3-26.3l23,31c3.5-2.7,22.4-17.8,22.5-20.5s-9.9-15.4-12-18c-5.6-7-12.1-13.3-18.4-19.6s-7.2-4.5-7.3-7.2l12.8-58.7,39,5.6,8-29.6-39-5Z"/>
    <g>
      <path class="st0" d="M1304,420.1l17.5-21,11.2,15.5c-14.2,24-33.7,46.1-39.7,74.1l-27-4.6c-1.7-71.8,30.6-137.4,57.4-201.8l31.5,12.4c-12.5,18.8-21.9,40.6-30.4,61.5-8.4,20.4-17.4,42.1-20.5,64Z"/>
      <g>
        <path class="st0" d="M1461,363.1l39,5-8,29.6-39-5.6-12.8,58.7c0,2.8,5.3,5.3,7.3,7.2,6.4,6.2,12.9,12.6,18.4,19.6s12.1,15.9,12,18-19,17.7-22.5,20.5l-23-31c-10.5,27.8-31.9,33.5-59.3,26.3-26.5-7-50.7-25-41.9-55.5,9.5-33.1,53.7-32.7,79.2-19.8l12.5-50.4-58.6-17.5,6.6-28,58.4,16.9c1.2-.4,1.3-1.4,1.7-2.3,2.6-5.6,6-22.6,7.5-29.5.8-3.6.9-7.4,1.5-11.1l34,9.5-13,39.4ZM1374.8,451.3c-16.2,1.1-22.1,18-6.5,26.9,18.9,10.7,34.4,5.2,37.2-17.2-8.1-5-21.1-10.4-30.7-9.7Z"/>
        <path d="M1374.8,451.3c9.6-.7,22.6,4.8,30.7,9.7-2.8,22.4-18.3,28-37.2,17.2-15.7-8.9-9.7-25.8,6.5-26.9Z"/>
      </g>
    </g>
  </g>
</svg>