<?xml version="1.0" encoding="UTF-8"?>
<svg id="_レイヤー_1" data-name="レイヤー_1" xmlns="http://www.w3.org/2000/svg" version="1.1" viewBox="0 0 1672.2 385.2">
  <!-- Generator: Adobe Illustrator 30.0.0, SVG Export Plug-In . SVG Version: 2.1.1 Build 123)  -->
  <g>
    <path d="M1238.2,11.1v15.5c0,2.4,10,3.4,12.5,3.5,12.4.9,24.7-1.5,37.1-1,5.8-1.1,2.1-17.4,7.2-18.8s15.2-1.3,19.8-1.2,12.8,1.4,18.5,2v15.5c.9,1.4,2,1.4,3.4,1.6,11.1,1.3,24.8-1.3,36.1,0,1.9.2,3.6.6,5,2-1.5,15,.6,31.3-4.5,45.6-2.7,1.8-36.8-1.6-44.5-.5s-9.8,14.9.2,16.7,45.1-1.7,47.8,2.2l-1,49.1c-1.1,1.6-25.3,2-29.1,1.9s-3.8-1-6-1c-24.8-.2-49.8-.2-74.5.5-4.7,4-4.5,13.3,2.6,14.4,4,.6,12.4.9,16.9,1.1,16,.7,58-3.2,69.8,3.2,1.5.8,2.9,1.8,3.5,3.5l-20,145.6c-.9,2.4-4,1.8-6.3,1.7-5.2-.3-16.3-4.3-19.8-3.8-6.1.9-8.9,11.4-.5,14.1,10.6,3.5,28.2,3.6,40.1,5.9,1.9.4,4.6.5,5.7,2.3.7,1.9-1.9,6.9-2.8,9-3.8,9.7-11.4,25.4-16.8,34.2-2,3.2-4.8,9-8.9,9.2s-15.9-2.9-20.9-4.2c-18.4-4.7-50.2-16.6-65.5-27.5-11-7.9-9.4-10.1-2.9-20.7s13.6-14.9,4.8-18.2-19.2-2.5-24.5-2.5c-5.7,0-17.8.3-23,1.1-5.7.9-7.2,9.5-6.5,14.4s8.1,7.7,7,15-23.9,16.9-31,20c-24.2,10.6-50,19.9-76.9,18.4-1.5-1.3-1.5-33.8-1.1-38.4.5-7.4,0-13.6,8.5-14.5,11-1.1,25.4,0,35.8-2.2,6.7-1.5,8.1-12.3,1.7-14.2s-19.6,3.6-20.1-4.1c5.6-43.9,7.1-90.5,16.4-133.7,1-4.5,1.6-14.2,7.1-14.9,20.6-2.4,46.5,1.3,68,0,2.6-.2,11.1-.7,12.8-1.2,6-1.7,6.6-13.8,1.2-14.8l-94,1-5.5-1.7,7-50.9c2.6-1.8,43.3,1.6,51.5.5,11.9-1.7,10.3-15.2,0-16.9s-27.7,4.4-40.5,3l6.5-49,48.5-2V11.1c14.5-3.2,29.5-1.9,44,0ZM1241,76.4c-11.4,1.5-14,9.4-2,12.5,7.1,1.8,30.5,2.6,36.6-.9s5.5-6.2,2.2-8.9c-4.2-3.5-30.7-3.5-36.8-2.7ZM1215.9,210.8c4.9-5.9-3.3-9.2-8.2-9.7s-25.9-.9-31.9,0-6.3,2.8-6.6,5.5c0,1.8.6,3.9,2.1,4.9,4.4,3.2,30.2,3.3,36.5,2.5s6.9-1.7,8.2-3.3ZM1307,204.4c-1-1-6.5-3.1-8.2-3.3-6.4-.8-24.6-.8-31,0-11.5,1.4-10,11.5,2.1,12.9s31.2,1.1,35.5-2.3,3.8-5.1,1.7-7.3ZM1164.5,263.8c4.7,4.6,38.6,4.7,43.7.8s3.6-6.5-.3-8.7c-6.6-3.7-37.4-4.4-43.2.2s-2.4,5.5-.2,7.8ZM1263,253.4c-10,1.4-16.2,8.6-4,12.5,6.2,1.9,30.7,2.3,36.4,0s6.7-4.7,4.3-8.8-30.9-4.5-36.8-3.7Z"/>
    <path d="M1403.2,255.1l9.4-58.1c.9-.8,2-.8,3.1-.9,15.5-2,37.6.6,54.1,0,2.4,0,4.6-1,6.9-1.1,8.2-.4,17.5,2.9,22.4-4.6s4.7-13.9-5.4-15.2-25.1.4-36.4-1.1c.2-4.1.8-15.7-5.4-15.1s-11.1,9.5-13.7,11.4c-4.3,3.3-28.9,20.2-32.9,18.2s-6-21.2-6.8-25.3c-1.1-6.5-2.8-16.4-3.2-22.8s-.3-4.3.2-6.3c27.8-19.9,59.9-38.3,84.8-61.7,18.3-17.1,33.3-38.4,49.7-57.3l43.9.7c11.1,15.3,20.8,31.7,32,47,18.7,25.5,41.7,45.1,66.3,64.8,1.2,3.6-7.4,17.8-9.7,22s-16.4,30.1-20.2,31.9c-8.2,3.7-24.4-22.7-31.7-24.3-13-2.9-11.4,4.8-11.3,14.8h-43.5c-.4,0-5.4,4.1-6,5-4.1,6.3,0,16.4,5.4,20.5l81.1-.6-6,57c-.8.8-19.9.3-23.3,1.2s-4.7,5.7-3.2,8.8,18.7,3.3,24,4,1.8-.6,1.5,1.5l-31,54,1.5,1.5,33.5,1c-.3,12.7-.5,25.8-2.1,38.4s-1,11.6-4.4,15.6h-248c-.7,0-2.3-2.4-2.5-3.5-1-5,4.1-49.7,6.1-51.4l30.9-2.1,1-17h-7s-2-40-2-40c5.6,0,21.6,1.4,20.8-7.3s-2.5-3.7-4.3-3.7h-18.5ZM1570.2,114.1l-15.8-22.7-10.7-20.3c-1.5-.4-1.6.9-2.3,1.7-3.5,3.7-6.9,10.9-10.6,15.4-7.2,8.7-17,16-24.5,24.5l64,1.5ZM1550,254.4c-9.5,1.2-9.4,3.7-11.7,12.3-3,11.4-7.8,41.6-5.7,52.4s.9,4.9,3.2,5.8c4.4,1.1,12.5-11.6,14.7-15,6.5-9.9,13.7-23.7,18.4-34.6s7.4-15,5.2-17.9c-3.1-4.2-19.3-3.8-24.3-3.2ZM1465,255.4c-7.4.8-11.1.9-10.9,9.2.3,12.2,5.9,44,11.7,54.4,3.3,5.9,4.9,4.8,7.9-.8,8.3-15.2,9-40.7,13.5-57.6-.4-7.1-16.9-5.8-22.3-5.2Z"/>
  </g>
  <g>
    <g>
      <path d="M1031.7,325.5c-23.2,23.2-55.5,38.8-88.7,38.4l-2-59c3.8,1.2,10.1.4,14.4-.1,47.9-6.2,74.2-43,83.2-87.8,7-35.3,6-81.4-23.5-106.5-5.6-4.7-13.3-10.2-20.9-9.3-3.5,23.9-9.2,47.7-15.4,71.1-13.3,49.7-44.7,162.3-101.1,176.9-64.6,16.8-54.2-94.9-47.4-130.4,11.2-58.3,39.3-111.9,88-147,36.1-26,74-37,115.9-15.5,88.7,45.6,56.3,210.5-2.5,269.3ZM948.9,109c-2.4-1.6-10.6,4.9-12.8,6.5-39.3,29-68.2,92.5-69.1,140.9-.3,19.8,6.9,42.6,26.4,19.4,25.4-30.1,43.6-94.5,51.9-133.1,1.1-5,7.2-31.3,3.6-33.7Z"/>
      <path d="M714,10.9l-10,62c20.8-.1,41.7.1,62.5,0s21.4-.8,33.9,0c3.3.2,14.4-1.3,15.4,1.6-1.3,16.5-3.6,33.2-6.1,49.6-9.6,62-25.5,146.6-53.9,202.1-5.6,10.9-19.5,36.2-32.4,37.6s-53.3-2.1-68.8-5.2-4.1-.8-4.7-2.4l8.4-60.4c2-2.7,27.8,1.8,33,2s22.1.8,27.4-2.5c13.8-8.5,22.4-49.5,25.7-65.3,6.5-31,10.7-63.6,12.3-95.2l-62.3-.8c-2.1.7-3.2,5.9-3.9,8.1-10.7,30.6-16.8,63.6-28.3,94.7-19.7,53.6-58.8,97.8-103,133l-20-49.1c30.4-34.8,66.4-68.9,85-111.9,8-18.4,18.4-48.7,19.5-68.5s0-6.7-5.6-7.4-9.9-.9-13.9-1.1c-15.1-.7-30.5.6-45.5,0l5.4-55.1c2.5-3.6,67.2,2.2,73-2,3.5-2.6,9-55.8,10.7-63.8h45.9Z"/>
    </g>
    <g>
      <path d="M0,194.9C105,174.7,188.1,92.5,235.5,0c5.1,3.6,43.3,27.6,43.6,30.4s-.2,2.1-1,3c-28.2,43.8-59.1,83.5-94.8,121.2-8.1,59.5-15.9,119.1-24.4,178.6-2,14.1-3.7,28.3-6.8,42.2-2.7,2.1-22,1.7-26.6,1.5s-16.3-1.1-18.7-2.3-1.4-.5-1.6-1.4l23.9-172.4c-33,23-69.5,40-108.2,51.3s-9.7,2.9-14.8,2.7c-.2-18.3-4.3-36.4-5-54.6l-1-2.4v-3Z"/>
      <g>
        <path d="M537.7,114.1c2,2.1.5,6.3,0,9-9.2,44.9-55.4,136.8-86.2,170.8-44,48.6-113.3,73.6-177.5,80l1.9-69.6c54.2,2,105.6-18.6,145.1-54.9,43.5-40.1,59.2-99.9,77.9-154.1l38.8,18.8Z"/>
        <path d="M406.3,84.5c9.3,8.5,18.4,17.3,28.2,25.3l.3,1.3-33.4,58.7c-3-.5-19.8-21.7-23.5-25.6-16.3-17-36.3-32.9-54.8-47.4s-20.3-13.4-20.1-16.4l24.7-51c.7-.8,3.6-1.3,4.6-1.2,2,.2,22.9,14.6,26.4,17.1,17.4,12.2,31.8,24.9,47.4,39.1Z"/>
      </g>
    </g>
  </g>
</svg>