<?xml version="1.0" encoding="UTF-8"?>
<svg id="_レイヤー_1" data-name="レイヤー_1" xmlns="http://www.w3.org/2000/svg" version="1.1" viewBox="0 0 1306.5 190.8">
  <!-- Generator: Adobe Illustrator 30.0.0, SVG Export Plug-In . SVG Version: 2.1.1 Build 123)  -->
  <g>
    <path d="M151,13h4c.2,1.9-1,8.3,1.5,8.7l9.5-.7v-8s4,0,4,0v22h-4s-.9-9.6-.9-9.6l-9.1-.4v10s-5,0-5,0V13Z"/>
    <path d="M191,13v4s-10,0-10,0l.9,4.6c2.6,1.8,9.2-1.9,8.1,2.9l-8.1.9-.9,5.6,10.6.9.4,3.1h-15V13h14Z"/>
    <polygon points="147 13 147 17 140 17 140 35 136 35 136 17 130 17 130 13 147 13"/>
  </g>
  <path d="M634,21l39,98c1.8,2.2,4.6-2.6,4.6-4.5,0-4.6-10-12.6-2.1-14.5l2,6c2-2,.8-12.3,2.5-13,5.1-2,.8,7.2,1.5,8,1.2.3,8.1-5.3,8-1.5s-6.3,3.9-7.6,5.4c-2.3,2.8-1.3,5.7-1.4,9.1,3.8,0,5.5-3.4,7.5-6,2.5-1.3,1.3,3.7.7,4.8-.9,1.9-6.8,4.9-9.3,7.7-5.7,6.5-2.7,8.3.6,15.6,5.3-1.5,7.6-5.9,9.5-10.5l2,1c.9,9.4-15.5,11.4-6,20.5l4-8.5,3,1.1c.3,1.4-6,9.3-5.8,13.7s.7,3.4,2.3,2.7l6.5-8c.6,10.8-10.1,9.9-1,20.5,2.6,3,15.1,10.6,3.5,11.6-6.6.6-20.6.7-27.1,0-10.9-1.3-9-18.1-14-24s-1.7-.9-2.9-1.1c-14.5-1.8-33,1.3-47.9.2l-10.6,23.4c-5.1.2-29.9,2-32.1-1.2s1.3-4,1.9-6-1.7-6.6-2.9-7.8-4.8-1-4-3c1.6-3.7,8.3,1.5,9.5,3.5,8.9-8.4-9.9-10.5-15.4-13.1v-2.9c0,0,4.9,0,4.9,0l1.5-6c2.4,1.7.9,4.7,2,7s6.3,4.2,8.5,4c1.2-1.2-1.5-12.5-2.9-14.3-2.3-2.8-12.3-2.4-10.1-10.7,4.1.5,4.1,7,9,6l-1-9h3c-.4,6.2,1.7,13,5.5,18l5.5-8c1.9,6-3.8,9.2-4.9,13.5s-.8,4.7.9,4.4l8.8-20.7c-3.5-3.9-2.4-9.8-4-13.6s-5.8-3.8-3.8-5.7,3.5.3,4.6.9c4.5,2.7.6,10.3,5.4,13.1.9-5.6,6.3-12.6,4.8-18.2s-4.8-9.1-5.3-9.7c-2-2.4-5-2.9-6.7-6.3s-3.6-10,1.2-9.7c1.2,4.3.2,8.3,4.5,11,3.5,1.4-.8-8.4,3.5-7l.2,9.3,4.8,7.2c1.1-3.3,4.5-8,4.8-11.3s-2.5-5.9-1.8-8.7,4.2.8,3,3.5c.9,0,1.4-.9,1.9-1.6,1.9-3,14.1-36.2,14.9-40.1,1-5.1-.7-10.6-3.8-14.8s-8.2-4.4-6-9.5h28.5ZM614.5,127h32c-5.3-13.3-8.5-29.2-14.6-42s.1-2.4-1.9-2l-15.5,44Z"/>
  <path d="M705.5,165l1-87c-5.5,0-10.3-1.4-13.4,4.1-5.5,9.6,6.9,7.1,7.4,9.4.9,4.2-10.2,3-11.8-2.2s.6-8.2,2.8-11.3c-6.9-.8-13.2.8-19.9,1.9l-.9-5.1,7.7-22.1h83.1c4.1,1.8,6,23.3,6,28.4-2.9.7-5.1-1.6-7.6-1.9-3.8-.5-8.1.3-11.9,0s-14.1-4.2-15.4-.3l.9,86.4h-28Z"/>
  <path d="M796,52c6.2,1.8,2.6,20.5,2.5,25.5s-.3,17.6,1.1,18.5c9.7-3.3,2.5-9.8,1.9-14.5s.7-6.4,1.1-9.5c3.2-3.4,1.6,9.5,2,10,2.4,1.8,7.1-6.5,8-2.5s-4.1,4.1-4.8,6.1.6,5.6-.7,8.3-8.5,7.2-8.5,9.5v38.5h33.5c4.3,0,8-9.6,12.6-5.3-.3,5.2-4.3,27.8-8.8,29.1-19-.9-40.1,1.8-58.8.2s-5.3-5.2-4-11c3.7-16.5,3.2-73.2,1.5-91.5-.4-4.6-2.5-7.2-3-11.5h24.5Z"/>
  <path d="M958,165c-3.7-1.1,1.1-7.4,1.4-9.6,4.4-28.5-1.1-62.8,1.1-92l-6-11,9-3-2.5-2.5,1-3,6.5,7-2-11,3.5,3,3.5-3c-.2,4.5-3.9,9-1,13.6,18.1,17.9,34.2,37.8,52,56,1.4,1.4,2.9,3.6,5,3.5v-61h27l-3,9.5-1,109.5-3.5-.9-64-66c-2.3-.4-1.4,1-1.5,2.5-1.1,15-1.6,32,.1,46.9.2,1.8,3.8,11.6.4,11.6h-26Z"/>
  <path d="M1093.5,165c.1-6.3,2.6-12.1,3-18.5,1.6-22.2-1.3-46.2,0-68.5-6.2,0-12.4,0-18.5,0s-4.6-1.2-6.9-1.1c-3.6,0-12.1,6.2-12.6.5s6.9-22.9,8-24.1c2.4-2.7,8.6-1,12.1-1.4l-5-6.5c0-3.5,2.6-.1,4,.5l-1-6.5,2-1,1,8.5,6-5-4,10h57.5l9.5,13-3-13h24.5l1.3,1.7c1.2,4.7-.8,9.4-.9,13.8-.4,14.7,2.2,37.5-.2,50.8-.8,4.2-15.2,23.6-18.8,25.2-5.9,2.7-3.6-7.8-4-11.5-7.7,1.9-8.7-3.7-12.3-6.7s-3.7-1.4-5.1-2.4c-4.5-3.4,0-8.3,2.9-1.9h1.9c2.8-5.3,6.2-8,12.5-8-1.1-9.3,1.7-22.7,0-31.4-.4-2.3-5.9-6.5-7.5-6.5h-18l-1.5,1.5v77c0,.6,5.7,11.5,1.5,11.5h-28.5ZM1147.5,129c-.4-5.2,2.4-14.8-5.7-11.2s-1.9,13.1,5.7,11.2Z"/>
  <path d="M561.3,88.4c.3,0,1.1-1.5,1.5-1v5s-11,0-11,0v7s10,0,10,0v4h-10s0,11,0,11h-5v-26c4.6-.4,10.1.6,14.5,0Z"/>
  <path d="M1288.5,144l6.5-12,1.5-8h3s-1,7-1,7l7-3c-.7,4.4-6.3,5.2-9,8.5-1.7,2.1-2.2,4.9-4,7l4-1c2.6-.8,2.7,2.9-1.5,4.6s-7.6-.1-9.5,6.5c-.9,3.2,7.8.7,9.2.2,4.6-1.8,10.6-11.8,11.8-4.7-5.6,2.2-6.9,7.6-13.7,8.8-2.7.5-7.5-.4-9.3.7s-5.1,8.6-6.6,10.4c-23.2,29.3-87.4,30.5-105.1-4.7-6.4-12.7-7.2-33.2,4.2-43.2,2.9-.6,2.8,7,3.5,9.4,1.5,4.7,6.8,12.7,11.5,14.5s.6-6.7.5-7.6c0-1.7,0-2.3,1.5-3.3,3.6-.8,2.3,8.2,2.5,10,2.6,3.3,3.8-10.7,7-9,1.1,5.6-2.6,9.5-5,14,3.4.6,6.3,3.2,9.7,3.9s1.6-6.5,2.8-7.8c2.6,2.3,1.2,6,1.5,9,4.8.7,1.2-5.9,4.5-6,3.5,2.4,2.3,3.9.5,7,9.6,2.4,34.4,1.9,36.8-10.7,2.1-11.2-11.9-23.9-21.8-26.3-.2,8.3-7.2,9.4-13.7,6.2-1.8-.9-3.6-3.4-5.2-3.8s-7,4.2-11.6-.4c-4.7-4.7,2.8-12.6,0-17.1-.9-1.5-11.4-7.2-14-10-15.7-16.1-12.4-48.5,4.5-62.6,18.6-15.4,46.1-12,68-7.5.6-.6-1.6-5,2-4v4.9c.1,0,8,2.1,8,2.1,1.9-5.3,0-9.6,0-15,3-.7,2.8,3.8,4,5.4,1.4,1.9,6.6-4.1,6.9-5.1,1.2-4-2.9-8.2.7-11.3,1.9,0,3,10.2,2.5,12,.6.7,6.8-1.6,8-2.5,2.2-1.7,4.4-10.1,7-7.5s-3.8,8.3-3.2,10.8c-9.5,1.4-18.4,3.5-22.4,13.2l4.1,17c3.5-3.8,4.6-20.1,9-22,5.7-2.5-.5,6.5-.8,7.2-.9,2.5-1.1,5.2-1.8,7.7,6.3.8,7.6-3.8,10.5-8l2.5,1.5c-1.6,11.1-9.3,7.7-13.7,10.8s-6.8,8.1-5.3,9.7c3.3.4,5.5-1.8,7.5-4l3.9,2c1.5.8,9.5-7.6,9.6-3.5.2,6.4-17.5,7.5-21.9,9.6,1.6,4.6,1,20.5-7.1,15.5-.6-.4-5.5-8.1-8.5-10.5-5.6-4.4-25.5-14.2-24.6-.5.3,3.8,3.7,4.4,4.6,7.4,4.5,13.9-17.1,8.5-19.5,0,2.3-2.1,13.3,8.6,16.5,4s-2.1-4.7-3.4-6.7c-3.4-5.4-2-8,.8-13.3-13.5-1.4-36.2,9.7-17.9,22.4,8.7,6.1,30.2,16,40.4,19.6,2.4.8,1-.9.7-1.7-1.1-4-8.3-12.5-.2-12.3l4,16c2.6,2.7,2.2-8.5,6-7l-1.6,10c6.5,3,10.4,7.8,15.1,13,3.5-10.1-15.1-18.3-4.5-27-.4,5.6-.7,10.7,5.5,13l3.5-11h3c1.9,5.4-4,11.1-4.8,14.8s.9,2.4.9,2.7v14.5c7.3-4.9,7.3-14.1,11.8-21.7,1.1-1.9,2.6-5.5,5.2-5.3,1.5,1.8-7.1,14.6-8,17.5-1.2,4.1,7.1-1.9,5-5.5h3c2.2,9.2-12.7,12.3-15.5,19-1,2.4,1.5,5.1,1.5,6.5v16.5ZM1203.6,118.8c2.7,1.7,6.1-2.2,8.1-1.7,4.3,1,6.8,7.1,14.1,4.7l1.7-2.3c-.3-2.6-2.2-4.3-4.1-6-2.1-1.9-13.8-7.8-16.4-8.6s-1.3,3.2-1.9,5-4.3,7-1.4,8.8Z"/>
  <path d="M900,45c14.8,31.1,26,64.2,40.3,95.7,3.6,7.9,7,15.8,12.1,22.8-3.1,3.9-7.2,1.3-11.5,1.4-5.6,0-10.7,1.5-16.5-.4l-8.6-18.4-37.5.5-8.9,18.9c-2,1-20.9.9-23,0-4.2-1.8,1.8-7.1,3.2-9.8,14.4-29.7,24.4-63.1,37.6-93.4.9-4.7-1.5-9.6-4.4-13.1s-3.2-1.9-3.4-2.6c-.8-3,2.3-1.5,2.5-1.5h18ZM888.5,123h19c-2.3-7.5-5.2-16-8.6-23s0-2.6-1.9-2-8,22-8.5,25Z"/>
  <path d="M485.8,78.8l-3.1,1.1c-9.7-8.8-24-16-37.5-12.1s-7.1,3.6-7.1,6.8c0,8.6,27.1,15.1,33.4,19.5,1.6-4.5-5.2-9.9-1-14l2.5,8c2.8,2.8,2-7.2,2-8l3.4,2.8,3.6-.8c-1.7,4.5-6.1,7.4-5,13l9-5.5,3-3.5c2.5,8.1-8.4,6.3-8.8,11.7s8.6,8.8,10.4,12.3c13.9,26.7-4.2,54.2-33.1,57-10.8,1.1-42.7-2.2-46-15-.9-3.6-1.2-23.8-.4-27.5s1.2-2.5,2.5-3.5c4.5,3.5,6.7,9,11.5,12.4,8.7,6.2,32.4,11.8,40,2.1,11.4-14.6-22.3-22.7-30.3-26.7-16.2-8-24.3-17.2-22.7-36.3,3-35.2,49-38.1,72.8-22.8.2,5.2,3.8,26.1.9,29.1Z"/>
  <path d="M261.7,162.8c-1.8,1.7-20.4,1.9-22.8.8s-2.3-5-1.4-7.5c4.1-12.2,17.2-28,22.2-40.8.6-1.5,1.4-3,1.3-4.7-11.3-18.5-22-37.8-34.6-55.5s-7.9-6.1-5-10.2c1.7-2.4,6.7,0,9.1,0,6.8.2,13.7-.6,20.5.5l23.5,41.5,22.9-42.1,26.6-.5c4.2,2.9-4.3,11.1-6.1,14-20.7,33.2-37.9,69.7-56.2,104.3Z"/>
  <path d="M540,101.7c0,7.7-6.3,14-14,14s-14-6.3-14-14,6.3-14,14-14,14,6.3,14,14ZM525.5,92.7c-10.3.6-10.2,18.2.8,17.8,11.3-.5,9.1-18.3-.8-17.8Z"/>
  <path d="M79.5,15c1.3.3,3,2.1,3.7,3.3,3.8,6.1,9.5,23.7,12.5,31.5,4.7,12.3,8.9,24.9,13.3,37.2,3-.7,2.8-6.6,4.2-7.8s6-.7,7.3-6.2l2.5,1.5c0,8-9.2,5.4-10,12.4l6,.5c-2.9,2.3-7.9,2.8-6.8,7.7l10.8,27.8c9.8-2-5.5-16.8,5-17-1.6,4.8,2.2,9.5,2.1,13.5s-4.2,6.1-4,9.9,2.8,8.6,3.5,9.6,1.1,1.1,2,0c2.5-3.1,3.4-8.3,7.8-10.2s-.4,3.6-1.2,4.9c-1.4,2.3-6,9.5-5.9,11.6.1,4,7.1,16.7,9.8,20.2s16.1,13.4,3.4,15.5c-4.4.7-23.4.6-27.5-.4-8-2.1-11.9-21.2-15.2-28.3-16.7-1.3-33.9-1-50.8.2-2.4,1.6-6.7,23.4-10.7,26.6s-21.8,2.5-26.8,2-7.8-2-7.4-6.5,4-4.7,4.1-8.1c.6-1.8-3-2.1-3.1-3-.2-2.7,5.8-.3,6-.5,1.2-4.7-2.2-3.8-4-7l4.5,2c8.7-4.6-.9-3.4-1.5-7.5s4.4-2.2,4-5C9.8,141.5-.1,139,0,129c1.6-1.9,6.8,8.7,8.5,9l.5-8h3c-2.2,9.6,6.7,10,8,17l2.1-.6c1.7-6.5,9.1-15.1,2.9-20.8s-10.2-3.1-11.8-7.2c-2.5-6.4,7.9,2.7,8.8,1.7-.6-5.6-1-12.9-6.7-15.8s-13.2-2.4-13.9-6.1-.4-2.5,1.1-3.1,1.8,2.2,3.7,3.3,3.3,1.5,3.8.2c-.6-2.7-1-6.4-2.2-8.8-1.6-3.3-6.3-4.5-5.8-8.7.6-.7,8.1,5.3,8.5,6,1.5,2.9.9,8.8,3.5,12.2s6,3.2,8,6.2,1.9,10,3.8,14.2,7.3,7.5,7.2-.1-7.7-19.3-9.5-21.6-9.9-5.6-3.5-9.1c0,1.6,2.8,6,4.5,4,3.7-7-2.7-15.2,0-20s3.4,3.5,2.5,5l4-2c-1.6,11.5-7.8,22,1.5,32,4.9-5.5,1.2-11,.5-17l4,3v-4s3,0,3,0c.7.7-2.6,13.2-2.9,15.6s-.9,3.6.9,3.4l25.7-70.6c-1-5.9-3.6-10.7-7.3-15.2s-5.6-1.7-3.4-8.1c7.6,1.1,19.5-1.5,26.5,0ZM93,124c.2-1.4-.1-2.7-.4-4.1-2.1-8.9-8.1-24.5-11.5-33.5s-1.7-6.1-4-7.5l-16,45h32Z"/>
  <path d="M214,99c28,13.8,21.9,55.6-7.5,64.1s-41.2,3-53.1,2-4.6-8.4-3.5-14.6c4.6-26.6-2.1-57.8,0-85,1.8-6.5-21.4-18.7-7.6-20.5s29.9-.5,40.1,0c16.1.8,32,3.7,37.9,21.1,4.3,12.7.2,22.3-6.5,33ZM174,90c9.7,2.7,28.2-3.2,22.5-16s-6.6-5-8-5h-14.5v21ZM174,141h16.5c2.3,0,10-3.3,12-5,7.6-6.5,4.7-16.2-3.2-20.9s-7.4-3.1-7.9-3.1h-17.5v29Z"/>
  <path d="M389.3,79.7c-.8-.7-1.1-2.3-2.2-3.2-7.8-6.1-18.5-10.6-28.6-9.5s-15.4,8.3-5.8,14.8c17.6,12,47,12.4,50.2,39.8,4.8,41.3-40.5,54.9-72.2,40.2s-9.2-4.7-10.7-9.3-1.7-23.7-.9-28,1.2-2.5,2.5-3.5c3.7,4,7.7,11.9,13,14,3.5,1.4-1.7-8.3-1.5-9.5.6-4.1,4.7,2.5,4,4.5l4-4-1,11c4.3-.8,4.2-7.4,10-6-1.6,3-6.2,3.8-6,8,7.2,3.6,32.7,2.1,34-7.5,1.8-12.7-22.5-17.7-30.7-21.3-17.9-7.8-27.4-16.6-25.3-37.7,3.6-35.3,48-37.7,71.8-21.8-.4,5,1.1,9.9,1.2,14.8s1.3,20.4-5.8,14.2Z"/>
</svg>